<svg width="24" height="24" viewBox="0 0 24 24" fill="none" xmlns="http://www.w3.org/2000/svg">
<path d="M16.8881 20.8C15.8508 20.8 14.856 20.3879 14.1225 19.6544C13.3891 18.9209 12.977 17.9261 12.977 16.8888V5.15551C12.977 4.63686 13.183 4.13946 13.5498 3.77272C13.9165 3.40598 14.4139 3.19995 14.9326 3.19995H18.8437C19.3623 3.19995 19.8597 3.40598 20.2264 3.77272C20.5932 4.13946 20.7992 4.63686 20.7992 5.15551V16.8888C20.7992 17.9261 20.3872 18.9209 19.6537 19.6544C18.9202 20.3879 17.9254 20.8 16.8881 20.8ZM16.8881 20.8H5.15477C4.63613 20.8 4.13873 20.5939 3.77199 20.2272C3.40525 19.8604 3.19922 19.363 3.19922 18.8444V14.9333C3.19922 14.4146 3.40525 13.9172 3.77199 13.5505C4.13873 13.1838 4.63613 12.9777 5.15477 12.9777H7.40366M12.977 7.45328L11.0214 5.49773C10.6547 5.13112 10.1574 4.92517 9.63886 4.92517C9.12032 4.92517 8.62301 5.13112 8.25629 5.49773L5.49113 8.26288C5.12452 8.62961 4.91857 9.12692 4.91857 9.64546C4.91857 10.164 5.12452 10.6613 5.49113 11.028L14.2911 19.828M16.8881 16.8888V16.8986" stroke="#02021E" stroke-width="2" stroke-linecap="round" stroke-linejoin="round"/>
</svg>
